<?xml version="1.0" encoding="UTF-8"?>
<svg width="384px" height="82px" viewBox="0 0 384 82" version="1.1" xmlns="http://www.w3.org/2000/svg" xmlns:xlink="http://www.w3.org/1999/xlink">
    <title>Quintype Full Black</title>
    <g id="Quintype-Full-Black" stroke="none" stroke-width="1" fill="none" fill-rule="evenodd">
        <g id="Black-01" transform="translate(-0, 1)">
            <path d="M42.0422961,16.6738302 C59.9692431,41.1522589 42.0422961,63.654661 42.0422961,63.654661 L42.0422961,16.6738302 Z M40.7621498,64.111083 C36.8670213,64.9983314 32.8370838,65.1273851 28.893015,64.4911773 C21.7230355,63.5030352 17.7725015,55.1779033 17.7725015,55.1779033 L34.7864579,50.7311998 L34.7864579,9.37596956 L40.7621498,15.1534533 L40.7621498,64.111083 Z M14.8119214,38.11202 C14.7357315,30.2815383 15.3956578,20.4369304 15.3956578,20.4369304 L21.1279544,18.3463478 L21.1279544,52.7073552 L17.5311687,53.8475091 C15.9153076,48.7494731 15.0004866,43.4559222 14.8117925,38.11202 L14.8119214,38.11202 Z M63.2856341,63.8824859 L59.7017402,68.2921195 C59.7017402,68.2921195 55.5832272,60.6141646 45.6667989,63.1983678 C45.6667989,63.1983678 64.2028789,51.415318 62.3726436,31.269809 C61.2014014,18.8547909 54.7587378,7.5357357 44.6752979,0.177509036 C43.6837969,-0.430667472 29.9775941,14.6974175 15.7900151,18.5739152 C15.7900151,18.5739152 16.4330533,4.28196036 27.1035174,2.98992315 L27.1035174,1.16577977 C27.1035174,1.16577977 -0.0477021619,4.96659334 6.29483577e-05,37.0478076 C6.29483577e-05,37.0478076 1.05337835,64.9880156 28.7834355,66.1639523 C39.5389849,66.6199881 39.5517476,66.6199881 39.5517476,66.6199881 C39.5517476,66.6199881 48.6352429,66.1639523 50.4661228,78.859846 L51.8421834,80 L63.9732777,64.5677624 L63.2862787,63.8824859 L63.2856341,63.8824859 Z" id="Shape" fill="#000000" fill-rule="nonzero"></path>
            <path d="M374.354473,38.8936794 L374.354473,38.4598534 C374.291659,34.0000097 372.922761,30.9026285 369.001673,30.9026285 C365.70409,30.9026285 363.774374,33.0082057 363.339313,38.8936794 L374.354473,38.8936794 Z M383.999981,41.2478175 C384.001249,42.4271948 383.938904,43.6057899 383.813194,44.7785111 L363.339055,44.7785111 C364.023311,50.6627008 366.82418,52.273339 370.868704,52.273339 C373.749368,52.1747157 376.521247,51.1538563 378.772662,49.3623785 L382.817186,54.8128707 C379.185003,57.7777604 374.632839,59.3981503 369.935511,59.3981503 C358.920351,59.3981503 353.319645,52.3367631 353.319645,42.0528156 C353.319645,32.2038495 358.733971,24.3993476 368.753381,24.3993476 C378.212617,24.3993476 383.999981,30.5935965 383.999981,41.2487162 L383.999981,41.2478175 Z M332.907806,52.2122259 C336.579053,52.2122259 338.819877,49.3006234 338.819877,41.9293055 C338.819877,33.7527327 336.828764,31.5843733 333.405681,31.5843733 C331.227671,31.5843733 329.298471,33.0094896 327.867274,35.425126 L327.867274,49.3001099 C328.908232,51.0933218 330.827195,52.2017877 332.907806,52.2117124 L332.907806,52.2122259 Z M336.517012,24.3989625 C345.230081,24.3989625 349.025539,31.1510609 349.025539,41.8057955 C349.025539,51.9643071 344.04679,59.3981503 335.895055,59.3981503 C332.844453,59.500865 329.904857,58.2531625 327.867403,55.9908384 L327.867403,71.0430197 L318.035018,72.0958084 L318.035018,25.4521363 L326.684627,25.4521363 L327.181986,29.1067251 C329.400831,26.192049 332.843698,24.4558425 336.517141,24.3989625 L336.517012,24.3989625 Z M304.032351,58.406218 C301.419023,66.7064293 295.817931,71.5382156 285.424727,72.09568 L284.367065,65.2200715 C290.83931,64.4148166 293.204345,62.5563878 295.009335,58.343821 L291.648422,58.343821 L281.566455,25.4521363 L292.021828,25.4521363 L297.93377,52.087432 L304.406144,25.4521363 L314.54912,25.4521363 L304.032351,58.40686 L304.032351,58.406218 Z M282.500422,56.7957082 C279.83019,58.5104506 276.716477,59.4146945 273.538931,59.3983734 C266.257704,59.335625 262.710539,55.2473386 262.710539,47.5045917 L262.710539,32.2652194 L258.043284,32.2652194 L258.043284,25.4521363 L262.710539,25.4521363 L262.710539,18.3278386 L272.543052,17.2126529 L272.543052,25.4521363 L280.135387,25.4521363 L279.077725,32.2658614 L272.543439,32.2658614 L272.543439,47.3799261 C272.543439,50.538292 273.601101,51.653606 275.655286,51.653606 C276.921186,51.6319155 278.153483,51.2445714 279.202323,50.5386772 L282.500422,56.7957082 L282.500422,56.7957082 Z M245.224166,24.3984489 C250.948824,24.3984489 254.371779,28.0530378 254.371779,34.3100688 L254.371779,58.344463 L244.53862,58.344463 L244.53862,35.9820769 C244.53862,32.5130099 243.357135,31.5838597 241.427289,31.5838597 C239.249925,31.5838597 237.44429,33.1329997 235.702759,35.8585668 L235.702759,58.343821 L225.869601,58.343821 L225.869601,25.4521363 L234.457169,25.4521363 L235.142715,29.3551576 C237.532878,26.2165902 241.267584,24.3806946 245.224166,24.3993476 L245.224166,24.3984489 Z M218.15254,58.343821 L208.319381,58.343821 L208.319381,25.4521363 L218.15254,25.4521363 L218.15254,58.343821 Z M213.173791,8.38771639 C216.243269,8.48776973 218.660006,11.0283484 218.592972,14.0845943 C218.525937,17.1408401 216.000108,19.5740069 212.929167,19.5406166 C209.858226,19.5072262 207.386291,17.01972 207.386446,13.9627458 C207.375092,12.4481686 207.987417,10.995049 209.080847,9.9417329 C210.174277,8.88841675 211.653391,8.32682399 213.173791,8.38771639 Z M200.603094,58.343821 L192.077309,58.343821 L191.641474,54.1944215 C189.456021,57.5646179 185.650134,59.5414142 181.622838,59.3981503 C175.461701,59.3981503 172.411765,55.433374 172.411765,49.0528329 L172.411765,25.4521363 L182.244924,25.4521363 L182.244924,47.8137521 C182.244924,51.1585386 183.365013,52.1499574 185.417909,52.1499574 C187.470805,52.1499574 189.338996,50.7871096 190.770064,48.3088195 L190.770064,25.4521363 L200.603094,25.4521363 L200.603094,58.343821 Z M138.682933,36.8492152 C138.682933,47.7513551 141.794135,51.9637935 147.394583,51.9637935 C153.244742,51.9637935 156.169822,47.7513551 156.169822,36.8492152 C156.169822,26.0089588 153.182701,21.7967771 147.394583,21.7967771 C141.670053,21.7967771 138.682933,26.0089588 138.682933,36.8492152 Z M156.729866,55.5564989 C161.303127,55.3852918 165.799847,56.7607477 169.487331,59.4587499 L163.326193,67.4499292 C159.343194,62.9895719 154.862836,59.2116013 146.772497,59.2116013 C135.259849,59.2116013 127.978622,51.1585386 127.978622,36.8492152 C127.978622,22.8498225 135.259849,14.363319 147.394583,14.363319 C159.592776,14.363319 166.873358,22.5400202 166.873358,36.8492152 C166.873358,47.2562876 162.019207,52.6448964 156.729866,55.5564989 L156.729866,55.5564989 Z" id="Shape" fill="#000000"></path>
            <line x1="95.9759499" y1="0" x2="95.9759499" y2="79.6806387" id="Path" stroke="#000000" stroke-width="2" stroke-linecap="square"></line>
        </g>
    </g>
</svg>